<?xml version="1.0" encoding="UTF-8"?>
<svg id="_레이어_1" data-name=" 레이어 1" xmlns="http://www.w3.org/2000/svg" viewBox="0 0 478.5 375.15">
  <defs>
    <style>
      .cls-1 {
        fill: none;
      }

      .cls-2 {
        fill: #fff;
      }
    </style>
  </defs>
  <path d="M466.33,287.12l-45.55-48.49v48.49h-21.46v-85.94h12.11l45.61,48.48v-48.48h21.46v85.94h-12.17Z"/>
  <g>
    <path class="cls-1" d="M374.14,206.63s0,0,0,0c-.56-.37-1.12-.72-1.7-1.06.57.34,1.14.69,1.7,1.06Z"/>
    <path class="cls-1" d="M342.26,268.03c-4.35,5.87-8.99,11.7-13.89,17.42-16.26-6.93-26.86-22.54-26.86-41.3,0-3.98.48-7.81,1.38-11.45-.9,3.64-1.38,7.48-1.38,11.46,0,18.76,10.58,34.39,26.84,41.32,4.9-5.73,9.55-11.56,13.9-17.44,0,0,0,0,0,0Z"/>
    <path class="cls-1" d="M347.69,219.64c-11.67,0-19.72,7.15-22.33,17.17,2.61-10.01,10.66-17.17,22.33-17.17,8.11,0,14.46,3.45,18.47,8.92,2.93-6.37,5.33-12.65,7.1-18.75-1.78,6.1-4.17,12.38-7.1,18.75-4-5.46-10.36-8.92-18.47-8.92Z"/>
    <path class="cls-1" d="M347.69,268.59c14.36,0,23.24-10.77,23.24-24.44,0-5.96-1.69-11.37-4.78-15.59-5.97,12.97-14.16,26.33-23.89,39.47,1.71.36,3.52.56,5.43.56Z"/>
    <path d="M301.51,244.15c0-3.98.48-7.81,1.38-11.46,4.88-19.67,22.26-33.71,44.8-33.71,9.3,0,17.72,2.4,24.75,6.59.57.34,1.14.69,1.7,1.06,1.79-6.92,2.76-13.61,2.76-19.93C376.89,118.65,261.73,0,188.45,0S0,118.65,0,186.7c0,71.54,122.14,188.45,188.45,188.45,39.37,0,98.43-41.22,139.91-89.68-16.26-6.93-26.84-22.56-26.84-41.32ZM249.18,289.13c-24.8,2.26-46.73-16.06-48.98-40.93l-.56-6.21c11.3-2.4,21.6-8.38,29.32-17.02,3.88-4.35,2.74-11.19-2.3-14.11-3.77-2.19-8.55-1.41-11.46,1.84-6.74,7.54-16.47,12.01-26.76,12.01s-20.01-4.47-26.76-12.01c-2.91-3.25-7.68-4.03-11.46-1.84h0c-5.03,2.92-6.17,9.77-2.3,14.11,7.71,8.64,18.02,14.61,29.32,17.02l-.56,6.21c-2.26,24.86-24.19,43.19-48.98,40.93-24.8-2.26-43.07-24.25-40.82-49.12l5.43-59.83,4.83-53.23c2.25-24.87,24.18-43.19,48.98-40.93h0c5,.46,9.73,1.72,14.08,3.65,9.98,4.42,15.37,15.14,13.92,25.99,0,.04-.01.09-.02.13l-3.21,24.49c-.7,5.35,3.32,10.23,8.83,10.43,4.81.17,8.85-3.64,9.48-8.42l3.16-24.1c2.2-10.72,9.49-19.35,17.77-24.95,5.99-3.95,12.98-6.54,20.62-7.23h0c24.8-2.26,46.73,16.06,48.98,40.93l4.83,53.23,5.43,59.83c2.25,24.86-16.02,46.85-40.82,49.12Z"/>
    <path d="M347.69,219.64c-11.67,0-19.72,7.15-22.33,17.17-.6,2.31-.91,4.77-.91,7.34,0,11.85,6.68,21.51,17.82,23.88,0,0,0,0,0,0,0,0,0,0,0,0,9.73-13.14,17.92-26.51,23.89-39.47-4-5.46-10.36-8.92-18.47-8.92Z"/>
    <path d="M374.14,206.63s0,0,0,0c0,0,0,0,0,0-.27,1.05-.57,2.11-.88,3.18-1.78,6.1-4.17,12.38-7.1,18.75,3.09,4.22,4.78,9.63,4.78,15.59,0,13.67-8.88,24.44-23.24,24.44-1.91,0-3.72-.2-5.43-.56-4.35,5.88-9,11.71-13.9,17.44,5.8,2.47,12.31,3.84,19.33,3.84,26.71,0,46.17-19.72,46.17-45.17,0-15.86-7.56-29.49-19.73-37.52Z"/>
    <path class="cls-2" d="M347.69,198.98c9.3,0,17.72,2.4,24.75,6.59-7.03-4.19-15.45-6.59-24.75-6.59-22.54,0-39.92,14.04-44.8,33.71,4.88-19.67,22.26-33.71,44.79-33.71Z"/>
    <path class="cls-2" d="M324.44,244.15c0-2.56.31-5.02.91-7.34-.6,2.31-.91,4.77-.91,7.34,0,11.85,6.68,21.52,17.82,23.88,0,0,0,0,0,0-11.14-2.36-17.82-12.02-17.82-23.88Z"/>
    <path class="cls-2" d="M374.14,206.63s0,0,0,0c-.27,1.05-.57,2.11-.88,3.18.31-1.06.61-2.12.88-3.18Z"/>
  </g>
</svg>